. 
  
http://www.torrentday.com/        :     The Hottest Private Tracker On The Net!!!


               www . TorrentDay . Com 
(((((((((((((= Enjoy No RAR releases =))))))))))))))))))))


...................................NFO:....................................

.[img]http://leetleech.org/images/04717187007744534102.jpeg[/img]

[b]The Penguins Of Madagascar Happy King Julien Day 2010 DVDRip XviD AC3-LEGi0N

[img]http://leetleech.org/images/48874973695367351744.png[/img]
[color=red]General[/color]
Format: AVI
File size: 1.37 GiB
Duration: 1h 52mn
Overall bit rate: 1 745 Kbp
IMDb Rating: 7.1/10   33 votes
Genre: Animation | Comedy | Family
IMDb LINK: http://www.imdb.com/title/tt1154826/
Source: NTSC DVDR-TWiZTED

[color=red]Video[/color]
Format: MPEG-4 Visual
Format profile: Streaming Video@L1
Format settings, BVOP: Yes
Format settings, QPel: No
Format settings, GMC: No warppoints
Format settings, Matrix: Default (H.263)
Muxing mode: Packed bitstream
Codec ID: XVID
Bit rate: 1 288 Kbps
Width: 720 pixels
Height: 400 pixels
Display aspect ratio: 16/9
Frame rate: 23.976 fps
Resolution: 24 bits
Colorimetry: 4:2:0
Scan type: Progressive
Bits/(Pixel*Frame): 0.187
Stream size: 1.01 GiB (74%)

[color=red]Audio[/color]
Format: AC-3
Bit rate mode: Constant
Bit rate: 448 Kbps
Channel(s): 6 channels
Sampling rate: 48.0 KHz
Stream size: 360 MiB (26%)

[img]http://leetleech.org/images/84434050717770922575.png[/img]
Jeff Bennett	 ... 	Kowalski (voice)
John Di Maggio	... 	Rico (voice)
Danny Jacobs	... 	King Julien (voice)
Tom McGrath	... 	Skipper (voice)
Kevin Michael Richardson	... 	Maurice (voice)
Andy Richter	... 	Mort (voice)
James Patrick Stuart	... 	Private (voice)
Nicole Sullivan	... 	Marlene (voice)
Conrad Vernon	... 	Mason (voice)

[color=red]GREETZ[/color]
Noir | xXTHORNXx | bigimac | LUSi |

kempas | KaN1vE | mike160 | skillz |

Lungbuster | Sheikh |  DiLLoN    |

FLAWL3SS | AND ALL P2P!

[color=red]SAMPLE INCLUDED![/color][/b]

[img]http://leetleech.org/images/95521316153253938506.png[/img]
[img]http://leetleech.org/images/36930937037368633093.png[/img]
[img]http://leetleech.org/images/44900535197099433218.png[/img]
[img]http://leetleech.org/images/12417369342837415153.png[/img]
[img]http://leetleech.org/images/09386168582094132491.png[/img]
[img]http://leetleech.org/images/76735191369212862630.png[/img]
[img]http://leetleech.org/images/14930838545320878860.png[/img]
[img]http://leetleech.org/images/12755021538703799215.png[/img]